<?xml version="1.0" encoding="UTF-8"?>
<!-- Created with Inkscape (http://www.inkscape.org/) -->
<svg width="64" height="64" version="1.1" viewBox="0 0 16.933 16.933" xmlns="http://www.w3.org/2000/svg">
 <g stroke-width=".26458" aria-label="“">
  <path d="m4.7938 13.38c1.2406 0 2.2853-0.97943 2.2853-2.22 0-0.84884-0.26118-1.5671-1.3059-2.2853l-1.763-1.1427c0.6856-1.5344 1.8936-2.5465 3.6566-3.3301l-0.35913-0.84884c-3.1342 1.0774-5.191 3.428-5.191 6.3663 0 0.91414 0.22853 1.8609 0.6856 2.6445 0.52237 0.39177 1.1427 0.8162 1.9915 0.8162zm7.1499 0c1.2406 0 2.2853-0.97943 2.2853-2.22 0-0.84884-0.26118-1.5671-1.3059-2.2853l-1.763-1.1753c0.71826-1.5018 1.8936-2.5139 3.6566-3.2974l-0.35913-0.84884c-3.1342 1.0774-5.191 3.428-5.191 6.3663 0 0.91414 0.22853 1.8609 0.6856 2.6445 0.52236 0.39177 1.1427 0.8162 1.9915 0.8162z" stroke-width=".45344"/>
 </g>
</svg>
